# xmcd CD database file
#
# Track frame offsets:
#	150
#	28697
#	69196
#	95774
#	126163
#	146103
#	170796
#	202875
#	233234
#
# Disc length: 3774 seconds
#
# Revision: 2
# Processed by: cddbd v1.5.1PL0 Copyright (c) Steve Scherf et al.
# Submitted via: CDex 1.51
#
DISCID=800ebc09
DTITLE=Eugene Pao - Naked Time
DYEAR=2004
DGENRE=Jazz
TTITLE0=Go Forth
TTITLE1=Naked Time
TTITLE2=Tequila Blues
TTITLE3=Watching From a Distance
TTITLE4=East Wind
TTITLE5=What Now?
TTITLE6=Spanish Fried Rice
TTITLE7=Mahavishnu
TTITLE8=Partners in Crime
EXTD=YEAR: 2004
EXTT0=
EXTT1=
EXTT2=
EXTT3=
EXTT4=
EXTT5=
EXTT6=
EXTT7=
EXTT8=
PLAYORDER=
